<?xml version="1.0" encoding="UTF-8"?>
<!DOCTYPE svg PUBLIC "-//W3C//DTD SVG 1.1//EN" "http://www.w3.org/Graphics/SVG/1.1/DTD/svg11.dtd">
<!-- Creator: CorelDRAW -->
<svg xmlns="http://www.w3.org/2000/svg" xml:space="preserve" width="23.1509mm" height="23.1509mm" version="1.1" style="shape-rendering:geometricPrecision; text-rendering:geometricPrecision; image-rendering:optimizeQuality; fill-rule:evenodd; clip-rule:evenodd"
viewBox="0 0 1095.38 1095.38"
 xmlns:xlink="http://www.w3.org/1999/xlink"
 xmlns:xodm="http://www.corel.com/coreldraw/odm/2003">
 <defs>
  <style type="text/css">
   <![CDATA[
    .fil0 {fill:white;fill-rule:nonzero}
   ]]>
  </style>
 </defs>
 <g id="Layer_x0020_1">
  <metadata id="CorelCorpID_0Corel-Layer"/>
  <path class="fil0" d="M547.69 0c-145.24,0 -284.55,57.71 -387.3,160.39 -102.69,102.74 -160.39,242.06 -160.39,387.31 0,145.24 57.71,284.55 160.39,387.3 102.74,102.69 242.06,160.39 387.3,160.39 145.24,0 284.55,-57.71 387.31,-160.39 102.69,-102.74 160.39,-242.06 160.39,-387.3 0,-145.24 -57.71,-284.55 -160.39,-387.31 -102.74,-102.69 -242.06,-160.39 -387.31,-160.39zm184.26 575.47l-234.72 234.72c-7.33,7.39 -17.36,11.59 -27.78,11.59 -10.42,0 -20.44,-4.21 -27.78,-11.59 -7.39,-7.33 -11.59,-17.36 -11.59,-27.78 0,-10.42 4.21,-20.44 11.59,-27.78l207.33 -206.94 -207.33 -206.95c-15.35,-15.35 -15.35,-40.2 0,-55.55 15.35,-15.35 40.2,-15.35 55.55,0l234.72 234.72c7.39,7.33 11.59,17.36 11.59,27.78 0,10.42 -4.21,20.44 -11.59,27.78l0 -0z"/>
 </g>
</svg>
